<svg width="100%" viewBox="0 0 742 650" fill="none" xmlns="http://www.w3.org/2000/svg">
<g clip-path="url(#clip0_411_367)">
<path d="M430 464L93 464V319C93 255.487 144.487 204 208 204H430L430 464Z" fill="#FFEC8D"/>
<path d="M240 287H672V445C672 508.513 620.513 560 557 560H240V287Z" fill="#E9246C"/>
<path d="M419.352 486.024C419.224 485.875 419.054 485.731 418.84 485.592C418.627 485.453 418.387 485.331 418.12 485.224C417.854 485.107 417.56 485.016 417.24 484.952C416.931 484.877 416.606 484.84 416.264 484.84C415.39 484.84 414.744 485.005 414.328 485.336C413.912 485.667 413.704 486.12 413.704 486.696C413.704 487.101 413.811 487.421 414.024 487.656C414.238 487.891 414.563 488.083 415 488.232C415.448 488.381 416.014 488.536 416.696 488.696C417.486 488.867 418.168 489.075 418.744 489.32C419.32 489.565 419.763 489.896 420.072 490.312C420.382 490.717 420.536 491.261 420.536 491.944C420.536 492.488 420.43 492.963 420.216 493.368C420.014 493.763 419.726 494.093 419.352 494.36C418.979 494.616 418.542 494.808 418.04 494.936C417.539 495.053 416.995 495.112 416.408 495.112C415.832 495.112 415.267 495.053 414.712 494.936C414.168 494.808 413.651 494.627 413.16 494.392C412.67 494.157 412.211 493.864 411.784 493.512L412.472 492.296C412.643 492.477 412.862 492.659 413.128 492.84C413.406 493.011 413.715 493.171 414.056 493.32C414.408 493.469 414.787 493.592 415.192 493.688C415.598 493.773 416.014 493.816 416.44 493.816C417.251 493.816 417.88 493.672 418.328 493.384C418.776 493.085 419 492.653 419 492.088C419 491.661 418.872 491.32 418.616 491.064C418.371 490.808 418.003 490.595 417.512 490.424C417.022 490.253 416.424 490.083 415.72 489.912C414.952 489.72 414.307 489.512 413.784 489.288C413.262 489.053 412.867 488.749 412.6 488.376C412.344 488.003 412.216 487.517 412.216 486.92C412.216 486.195 412.392 485.581 412.744 485.08C413.096 484.579 413.582 484.2 414.2 483.944C414.819 483.688 415.518 483.56 416.296 483.56C416.808 483.56 417.283 483.613 417.72 483.72C418.168 483.827 418.584 483.976 418.968 484.168C419.352 484.36 419.704 484.589 420.024 484.856L419.352 486.024ZM422.206 495V486.648H423.614V495H422.206ZM422.206 485.08V483.32H423.614V485.08H422.206ZM429.222 495.096C428.656 495.096 428.134 494.984 427.654 494.76C427.184 494.525 426.779 494.211 426.438 493.816C426.096 493.411 425.83 492.952 425.638 492.44C425.456 491.928 425.366 491.395 425.366 490.84C425.366 490.253 425.456 489.699 425.638 489.176C425.83 488.653 426.096 488.195 426.438 487.8C426.79 487.395 427.2 487.08 427.67 486.856C428.139 486.621 428.662 486.504 429.238 486.504C429.931 486.504 430.534 486.675 431.046 487.016C431.568 487.357 432.006 487.789 432.358 488.312V486.648H433.606V494.904C433.606 495.693 433.414 496.36 433.03 496.904C432.656 497.448 432.144 497.859 431.494 498.136C430.854 498.424 430.139 498.568 429.35 498.568C428.411 498.568 427.643 498.403 427.046 498.072C426.448 497.741 425.952 497.293 425.558 496.728L426.374 496.008C426.704 496.499 427.131 496.867 427.654 497.112C428.187 497.357 428.752 497.48 429.35 497.48C429.862 497.48 430.331 497.384 430.758 497.192C431.195 497.011 431.542 496.728 431.798 496.344C432.064 495.96 432.198 495.48 432.198 494.904V493.432C431.888 493.944 431.462 494.349 430.918 494.648C430.384 494.947 429.819 495.096 429.222 495.096ZM429.654 493.944C429.952 493.944 430.24 493.891 430.518 493.784C430.795 493.677 431.051 493.539 431.286 493.368C431.52 493.187 431.718 492.984 431.878 492.76C432.038 492.536 432.144 492.307 432.198 492.072V489.672C432.048 489.288 431.835 488.952 431.558 488.664C431.28 488.365 430.966 488.136 430.614 487.976C430.262 487.805 429.899 487.72 429.526 487.72C429.099 487.72 428.715 487.811 428.374 487.992C428.043 488.173 427.76 488.419 427.526 488.728C427.291 489.027 427.11 489.363 426.982 489.736C426.854 490.109 426.79 490.488 426.79 490.872C426.79 491.288 426.864 491.683 427.014 492.056C427.163 492.419 427.366 492.744 427.622 493.032C427.878 493.32 428.182 493.544 428.534 493.704C428.886 493.864 429.259 493.944 429.654 493.944ZM443.126 495H441.718V490.328C441.718 489.443 441.58 488.797 441.302 488.392C441.036 487.976 440.625 487.768 440.07 487.768C439.686 487.768 439.302 487.864 438.918 488.056C438.545 488.248 438.209 488.509 437.91 488.84C437.622 489.16 437.414 489.533 437.286 489.96V495H435.878V486.648H437.158V488.44C437.382 488.045 437.67 487.704 438.022 487.416C438.374 487.128 438.774 486.904 439.222 486.744C439.67 486.584 440.14 486.504 440.63 486.504C441.11 486.504 441.51 486.595 441.83 486.776C442.161 486.947 442.417 487.192 442.598 487.512C442.79 487.821 442.924 488.189 442.998 488.616C443.084 489.043 443.126 489.507 443.126 490.008V495ZM445.236 491.656V486.648H446.644V491.384C446.644 492.237 446.793 492.877 447.092 493.304C447.39 493.731 447.833 493.944 448.42 493.944C448.804 493.944 449.172 493.864 449.524 493.704C449.886 493.533 450.212 493.293 450.5 492.984C450.788 492.675 451.012 492.307 451.172 491.88V486.648H452.58V493.4C452.58 493.571 452.612 493.699 452.676 493.784C452.75 493.859 452.868 493.901 453.028 493.912V495C452.868 495.021 452.74 495.032 452.644 495.032C452.558 495.043 452.473 495.048 452.388 495.048C452.121 495.048 451.892 494.968 451.7 494.808C451.508 494.637 451.406 494.429 451.396 494.184L451.364 493.208C451.001 493.827 450.51 494.307 449.892 494.648C449.284 494.989 448.617 495.16 447.892 495.16C447.017 495.16 446.356 494.867 445.908 494.28C445.46 493.683 445.236 492.808 445.236 491.656ZM459.421 495.16C458.738 495.16 458.13 494.989 457.597 494.648C457.064 494.307 456.642 493.875 456.333 493.352V498.408H454.925V486.648H456.173V488.216C456.504 487.704 456.936 487.293 457.469 486.984C458.002 486.664 458.584 486.504 459.213 486.504C459.789 486.504 460.317 486.621 460.797 486.856C461.277 487.091 461.693 487.411 462.045 487.816C462.397 488.221 462.669 488.685 462.861 489.208C463.064 489.72 463.165 490.259 463.165 490.824C463.165 491.613 463.005 492.339 462.685 493C462.376 493.661 461.938 494.189 461.373 494.584C460.808 494.968 460.157 495.16 459.421 495.16ZM458.989 493.944C459.405 493.944 459.778 493.859 460.109 493.688C460.45 493.507 460.738 493.272 460.973 492.984C461.218 492.685 461.405 492.349 461.533 491.976C461.661 491.603 461.725 491.219 461.725 490.824C461.725 490.408 461.65 490.013 461.501 489.64C461.362 489.267 461.16 488.936 460.893 488.648C460.637 488.36 460.333 488.136 459.981 487.976C459.64 487.805 459.266 487.72 458.861 487.72C458.605 487.72 458.338 487.768 458.061 487.864C457.794 487.96 457.538 488.099 457.293 488.28C457.048 488.451 456.84 488.648 456.669 488.872C456.498 489.096 456.386 489.336 456.333 489.592V491.976C456.493 492.339 456.706 492.669 456.973 492.968C457.24 493.267 457.549 493.507 457.901 493.688C458.253 493.859 458.616 493.944 458.989 493.944ZM476.189 495H474.781V490.328C474.781 489.443 474.642 488.797 474.365 488.392C474.098 487.976 473.687 487.768 473.133 487.768C472.749 487.768 472.365 487.864 471.981 488.056C471.607 488.248 471.271 488.509 470.973 488.84C470.685 489.16 470.477 489.533 470.349 489.96V495H468.941V486.648H470.221V488.44C470.445 488.045 470.733 487.704 471.085 487.416C471.437 487.128 471.837 486.904 472.285 486.744C472.733 486.584 473.202 486.504 473.693 486.504C474.173 486.504 474.573 486.595 474.893 486.776C475.223 486.947 475.479 487.192 475.661 487.512C475.853 487.821 475.986 488.189 476.061 488.616C476.146 489.043 476.189 489.507 476.189 490.008V495ZM482.026 495.16C481.397 495.16 480.826 495.048 480.314 494.824C479.802 494.589 479.36 494.275 478.986 493.88C478.613 493.475 478.325 493.011 478.122 492.488C477.92 491.965 477.818 491.416 477.818 490.84C477.818 490.253 477.92 489.699 478.122 489.176C478.325 488.653 478.613 488.195 478.986 487.8C479.36 487.395 479.802 487.08 480.314 486.856C480.837 486.621 481.408 486.504 482.026 486.504C482.656 486.504 483.226 486.621 483.738 486.856C484.25 487.08 484.693 487.395 485.066 487.8C485.45 488.195 485.744 488.653 485.946 489.176C486.149 489.699 486.25 490.253 486.25 490.84C486.25 491.416 486.149 491.965 485.946 492.488C485.744 493.011 485.456 493.475 485.082 493.88C484.709 494.275 484.261 494.589 483.738 494.824C483.226 495.048 482.656 495.16 482.026 495.16ZM479.258 490.856C479.258 491.432 479.381 491.955 479.626 492.424C479.882 492.893 480.218 493.267 480.634 493.544C481.05 493.811 481.514 493.944 482.026 493.944C482.538 493.944 483.002 493.805 483.418 493.528C483.845 493.251 484.181 492.877 484.426 492.408C484.682 491.928 484.81 491.4 484.81 490.824C484.81 490.248 484.682 489.725 484.426 489.256C484.181 488.787 483.845 488.413 483.418 488.136C483.002 487.859 482.538 487.72 482.026 487.72C481.514 487.72 481.05 487.864 480.634 488.152C480.218 488.429 479.882 488.803 479.626 489.272C479.381 489.741 479.258 490.269 479.258 490.856ZM498.139 486.648H499.499L495.947 495H494.715L493.099 491.064L491.499 495H490.267L486.715 486.648H488.059L490.939 493.608L492.283 490.184L490.875 486.664H492.107L493.099 489.32L494.091 486.664H495.323L493.931 490.184L495.275 493.608L498.139 486.648Z" fill="white"/>
<path d="M290.605 348.85H304.775L319.465 395H306.595L303.8 385.965H291.515L288.785 395H275.85L290.605 348.85ZM301.785 377.515L297.69 361.265L293.4 377.515H301.785ZM321.814 347.55H334.164V381.415C334.164 382.672 334.424 383.647 334.944 384.34C335.507 384.99 336.309 385.315 337.349 385.315C337.869 385.315 338.432 385.228 339.039 385.055C339.646 384.882 340.209 384.643 340.729 384.34L342.289 393.44C340.816 394.133 339.147 394.675 337.284 395.065C335.464 395.455 333.731 395.65 332.084 395.65C328.791 395.65 326.256 394.805 324.479 393.115C322.702 391.382 321.814 388.933 321.814 385.77V347.55ZM344.92 347.55H357.27V381.415C357.27 382.672 357.53 383.647 358.05 384.34C358.613 384.99 359.415 385.315 360.455 385.315C360.975 385.315 361.538 385.228 362.145 385.055C362.751 384.882 363.315 384.643 363.835 384.34L365.395 393.44C363.921 394.133 362.253 394.675 360.39 395.065C358.57 395.455 356.836 395.65 355.19 395.65C351.896 395.65 349.361 394.805 347.585 393.115C345.808 391.382 344.92 388.933 344.92 385.77V347.55ZM379.671 371.535C379.671 368.718 380.191 365.967 381.231 363.28C382.315 360.55 383.875 358.08 385.911 355.87C387.948 353.66 390.418 351.905 393.321 350.605C396.268 349.262 399.583 348.59 403.266 348.59C407.686 348.59 411.543 349.522 414.836 351.385C418.13 353.205 420.578 355.632 422.181 358.665L412.496 365.555C411.933 364.038 411.11 362.868 410.026 362.045C408.986 361.222 407.838 360.658 406.581 360.355C405.368 360.008 404.176 359.835 403.006 359.835C401.186 359.835 399.605 360.203 398.261 360.94C396.961 361.633 395.878 362.565 395.011 363.735C394.188 364.905 393.56 366.205 393.126 367.635C392.736 369.065 392.541 370.495 392.541 371.925C392.541 373.528 392.78 375.067 393.256 376.54C393.733 378.013 394.426 379.335 395.336 380.505C396.246 381.632 397.351 382.52 398.651 383.17C399.995 383.82 401.49 384.145 403.136 384.145C404.306 384.145 405.498 383.972 406.711 383.625C407.925 383.235 409.03 382.628 410.026 381.805C411.023 380.982 411.781 379.877 412.301 378.49L422.636 384.665C421.726 386.918 420.21 388.847 418.086 390.45C415.963 392.053 413.558 393.288 410.871 394.155C408.185 394.978 405.52 395.39 402.876 395.39C399.453 395.39 396.311 394.718 393.451 393.375C390.635 391.988 388.186 390.168 386.106 387.915C384.07 385.618 382.488 383.062 381.361 380.245C380.235 377.385 379.671 374.482 379.671 371.535ZM442.82 395.65C439.787 395.65 437.1 395.173 434.76 394.22C432.42 393.267 430.449 391.967 428.845 390.32C427.285 388.63 426.094 386.723 425.27 384.6C424.49 382.477 424.1 380.245 424.1 377.905C424.1 375.565 424.49 373.333 425.27 371.21C426.094 369.043 427.285 367.137 428.845 365.49C430.449 363.843 432.42 362.543 434.76 361.59C437.1 360.637 439.787 360.16 442.82 360.16C445.897 360.16 448.584 360.637 450.88 361.59C453.22 362.543 455.17 363.843 456.73 365.49C458.334 367.137 459.525 369.043 460.305 371.21C461.129 373.333 461.54 375.565 461.54 377.905C461.54 380.245 461.129 382.477 460.305 384.6C459.525 386.723 458.334 388.63 456.73 390.32C455.17 391.967 453.22 393.267 450.88 394.22C448.584 395.173 445.897 395.65 442.82 395.65ZM436.775 377.905C436.775 379.422 437.035 380.743 437.555 381.87C438.075 382.953 438.79 383.798 439.7 384.405C440.61 384.968 441.65 385.25 442.82 385.25C443.99 385.25 445.03 384.968 445.94 384.405C446.85 383.798 447.565 382.953 448.085 381.87C448.605 380.743 448.865 379.422 448.865 377.905C448.865 376.388 448.605 375.088 448.085 374.005C447.565 372.878 446.85 372.033 445.94 371.47C445.03 370.863 443.99 370.56 442.82 370.56C441.65 370.56 440.61 370.863 439.7 371.47C438.79 372.033 438.075 372.878 437.555 374.005C437.035 375.088 436.775 376.388 436.775 377.905ZM465.587 383.3V360.81H477.937V380.505C477.937 381.978 478.262 383.148 478.912 384.015C479.605 384.838 480.537 385.25 481.707 385.25C482.357 385.25 483.007 385.163 483.657 384.99C484.307 384.817 484.957 384.47 485.607 383.95C486.3 383.43 486.972 382.693 487.622 381.74V360.81H499.972V381.35C499.972 382.52 500.145 383.343 500.492 383.82C500.839 384.253 501.445 384.513 502.312 384.6V395C501.229 395.217 500.254 395.368 499.387 395.455C498.52 395.585 497.762 395.65 497.112 395.65C495.032 395.65 493.385 395.26 492.172 394.48C490.959 393.7 490.179 392.508 489.832 390.905L489.572 389.67C487.969 391.793 486.04 393.332 483.787 394.285C481.577 395.195 479.064 395.65 476.247 395.65C472.824 395.65 470.18 394.588 468.317 392.465C466.497 390.342 465.587 387.287 465.587 383.3ZM530.567 371.34C528.184 371.34 526.017 371.6 524.067 372.12C522.117 372.64 520.666 373.507 519.712 374.72V395H507.362V360.81H518.672V367.31C519.886 365.013 521.402 363.258 523.222 362.045C525.042 360.788 526.971 360.16 529.007 360.16C529.484 360.16 529.809 360.16 529.982 360.16C530.199 360.16 530.394 360.182 530.567 360.225V371.34ZM548.118 395.65C545.128 395.65 542.182 395.173 539.278 394.22C536.418 393.223 533.992 391.793 531.998 389.93L536.223 382.325C538.347 383.712 540.383 384.795 542.333 385.575C544.327 386.355 546.125 386.745 547.728 386.745C548.638 386.745 549.31 386.637 549.743 386.42C550.177 386.16 550.393 385.748 550.393 385.185C550.393 384.795 550.242 384.47 549.938 384.21C549.635 383.95 549.137 383.69 548.443 383.43C547.793 383.17 546.948 382.888 545.908 382.585C543.222 381.632 540.968 380.743 539.148 379.92C537.372 379.097 536.028 378.1 535.118 376.93C534.252 375.717 533.818 374.113 533.818 372.12C533.818 369.78 534.403 367.722 535.573 365.945C536.743 364.125 538.412 362.695 540.578 361.655C542.788 360.615 545.432 360.095 548.508 360.095C550.805 360.095 553.102 360.463 555.398 361.2C557.738 361.893 559.992 363.172 562.158 365.035L557.478 372.575C555.312 371.232 553.47 370.278 551.953 369.715C550.48 369.152 549.158 368.87 547.988 368.87C547.425 368.87 546.927 368.935 546.493 369.065C546.103 369.195 545.8 369.39 545.583 369.65C545.367 369.91 545.258 370.257 545.258 370.69C545.258 371.123 545.41 371.492 545.713 371.795C546.017 372.055 546.493 372.315 547.143 372.575C547.793 372.792 548.617 373.052 549.613 373.355C552.56 374.222 554.965 375.11 556.828 376.02C558.692 376.887 560.057 377.948 560.923 379.205C561.833 380.462 562.288 382.108 562.288 384.145C562.288 387.742 561.01 390.558 558.453 392.595C555.94 394.632 552.495 395.65 548.118 395.65ZM583.802 395.65C580.812 395.65 578.147 395.195 575.807 394.285C573.467 393.332 571.495 392.053 569.892 390.45C568.332 388.847 567.14 387.005 566.317 384.925C565.493 382.845 565.082 380.657 565.082 378.36C565.082 375.067 565.797 372.055 567.227 369.325C568.657 366.552 570.758 364.342 573.532 362.695C576.305 361.005 579.728 360.16 583.802 360.16C587.875 360.16 591.298 360.983 594.072 362.63C596.845 364.277 598.947 366.443 600.377 369.13C601.807 371.817 602.522 374.742 602.522 377.905C602.522 378.555 602.478 379.227 602.392 379.92C602.348 380.57 602.283 381.155 602.197 381.675H578.212C578.298 382.888 578.623 383.885 579.187 384.665C579.793 385.402 580.53 385.943 581.397 386.29C582.307 386.637 583.238 386.81 584.192 386.81C585.535 386.81 586.792 386.507 587.962 385.9C589.175 385.293 589.977 384.448 590.367 383.365L600.832 386.355C599.922 388.175 598.643 389.778 596.997 391.165C595.393 392.552 593.487 393.657 591.277 394.48C589.067 395.26 586.575 395.65 583.802 395.65ZM577.952 374.265H589.262C589.132 373.138 588.807 372.185 588.287 371.405C587.81 370.625 587.16 370.018 586.337 369.585C585.557 369.152 584.647 368.935 583.607 368.935C582.567 368.935 581.635 369.152 580.812 369.585C580.032 370.018 579.382 370.625 578.862 371.405C578.385 372.185 578.082 373.138 577.952 374.265ZM620.291 395.65C617.301 395.65 614.354 395.173 611.451 394.22C608.591 393.223 606.164 391.793 604.171 389.93L608.396 382.325C610.519 383.712 612.556 384.795 614.506 385.575C616.499 386.355 618.298 386.745 619.901 386.745C620.811 386.745 621.483 386.637 621.916 386.42C622.349 386.16 622.566 385.748 622.566 385.185C622.566 384.795 622.414 384.47 622.111 384.21C621.808 383.95 621.309 383.69 620.616 383.43C619.966 383.17 619.121 382.888 618.081 382.585C615.394 381.632 613.141 380.743 611.321 379.92C609.544 379.097 608.201 378.1 607.291 376.93C606.424 375.717 605.991 374.113 605.991 372.12C605.991 369.78 606.576 367.722 607.746 365.945C608.916 364.125 610.584 362.695 612.751 361.655C614.961 360.615 617.604 360.095 620.681 360.095C622.978 360.095 625.274 360.463 627.571 361.2C629.911 361.893 632.164 363.172 634.331 365.035L629.651 372.575C627.484 371.232 625.643 370.278 624.126 369.715C622.653 369.152 621.331 368.87 620.161 368.87C619.598 368.87 619.099 368.935 618.666 369.065C618.276 369.195 617.973 369.39 617.756 369.65C617.539 369.91 617.431 370.257 617.431 370.69C617.431 371.123 617.583 371.492 617.886 371.795C618.189 372.055 618.666 372.315 619.316 372.575C619.966 372.792 620.789 373.052 621.786 373.355C624.733 374.222 627.138 375.11 629.001 376.02C630.864 376.887 632.229 377.948 633.096 379.205C634.006 380.462 634.461 382.108 634.461 384.145C634.461 387.742 633.183 390.558 630.626 392.595C628.113 394.632 624.668 395.65 620.291 395.65ZM330.948 438.665C330.948 436.368 331.577 434.353 332.833 432.62C334.09 430.843 335.823 429.457 338.033 428.46C340.287 427.463 342.843 426.965 345.703 426.965C347.047 426.965 348.303 427.073 349.473 427.29C350.687 427.507 351.727 427.832 352.593 428.265V427.225C352.593 425.622 352.117 424.43 351.163 423.65C350.253 422.87 348.758 422.48 346.678 422.48C344.772 422.48 342.973 422.805 341.283 423.455C339.637 424.062 337.903 424.972 336.083 426.185L332.508 418.515C334.805 417.042 337.21 415.958 339.723 415.265C342.28 414.528 345.01 414.16 347.913 414.16C353.33 414.16 357.512 415.395 360.458 417.865C363.448 420.292 364.943 423.91 364.943 428.72V435.35C364.943 436.52 365.117 437.343 365.463 437.82C365.81 438.253 366.417 438.513 367.283 438.6V449C366.287 449.217 365.333 449.368 364.423 449.455C363.557 449.585 362.777 449.65 362.083 449.65C359.873 449.65 358.183 449.26 357.013 448.48C355.887 447.657 355.15 446.465 354.803 444.905L354.543 443.67C353.027 445.62 351.272 447.115 349.278 448.155C347.285 449.152 345.162 449.65 342.908 449.65C340.655 449.65 338.618 449.173 336.798 448.22C334.978 447.267 333.548 445.967 332.508 444.32C331.468 442.63 330.948 440.745 330.948 438.665ZM350.968 439.51C351.445 439.163 351.835 438.795 352.138 438.405C352.442 437.972 352.593 437.538 352.593 437.105V434.57C351.9 434.31 351.098 434.093 350.188 433.92C349.322 433.747 348.542 433.66 347.848 433.66C346.375 433.66 345.118 434.028 344.078 434.765C343.082 435.502 342.583 436.433 342.583 437.56C342.583 438.167 342.757 438.73 343.103 439.25C343.45 439.727 343.927 440.117 344.533 440.42C345.14 440.68 345.833 440.81 346.613 440.81C347.35 440.81 348.108 440.702 348.888 440.485C349.712 440.225 350.405 439.9 350.968 439.51ZM394.95 425.34C392.566 425.34 390.4 425.6 388.45 426.12C386.5 426.64 385.048 427.507 384.095 428.72V449H371.745V414.81H383.055V421.31C384.268 419.013 385.785 417.258 387.605 416.045C389.425 414.788 391.353 414.16 393.39 414.16C393.866 414.16 394.191 414.16 394.365 414.16C394.581 414.16 394.776 414.182 394.95 414.225V425.34ZM415.621 449.65C412.631 449.65 409.966 449.195 407.626 448.285C405.286 447.332 403.314 446.053 401.711 444.45C400.151 442.847 398.959 441.005 398.136 438.925C397.312 436.845 396.901 434.657 396.901 432.36C396.901 429.067 397.616 426.055 399.046 423.325C400.476 420.552 402.577 418.342 405.351 416.695C408.124 415.005 411.547 414.16 415.621 414.16C419.694 414.16 423.117 414.983 425.891 416.63C428.664 418.277 430.766 420.443 432.196 423.13C433.626 425.817 434.341 428.742 434.341 431.905C434.341 432.555 434.297 433.227 434.211 433.92C434.167 434.57 434.102 435.155 434.016 435.675H410.031C410.117 436.888 410.442 437.885 411.006 438.665C411.612 439.402 412.349 439.943 413.216 440.29C414.126 440.637 415.057 440.81 416.011 440.81C417.354 440.81 418.611 440.507 419.781 439.9C420.994 439.293 421.796 438.448 422.186 437.365L432.651 440.355C431.741 442.175 430.462 443.778 428.816 445.165C427.212 446.552 425.306 447.657 423.096 448.48C420.886 449.26 418.394 449.65 415.621 449.65ZM409.771 428.265H421.081C420.951 427.138 420.626 426.185 420.106 425.405C419.629 424.625 418.979 424.018 418.156 423.585C417.376 423.152 416.466 422.935 415.426 422.935C414.386 422.935 413.454 423.152 412.631 423.585C411.851 424.018 411.201 424.625 410.681 425.405C410.204 426.185 409.901 427.138 409.771 428.265ZM455.4 449V428.07H451.175V418.775H455.4V415.07C455.4 412.21 455.92 409.718 456.96 407.595C458 405.472 459.451 403.825 461.315 402.655C463.221 401.485 465.431 400.9 467.945 400.9C469.418 400.9 470.935 401.073 472.495 401.42C474.055 401.723 475.701 402.2 477.435 402.85L475.355 412.21C474.661 411.95 473.881 411.733 473.015 411.56C472.148 411.387 471.39 411.3 470.74 411.3C469.743 411.3 468.985 411.582 468.465 412.145C467.988 412.665 467.75 413.488 467.75 414.615V418.775H475.225V428.07H467.75V449H455.4ZM502.352 425.34C499.969 425.34 497.802 425.6 495.852 426.12C493.902 426.64 492.45 427.507 491.497 428.72V449H479.147V414.81H490.457V421.31C491.67 419.013 493.187 417.258 495.007 416.045C496.827 414.788 498.755 414.16 500.792 414.16C501.269 414.16 501.594 414.16 501.767 414.16C501.984 414.16 502.179 414.182 502.352 414.225V425.34ZM523.023 449.65C520.033 449.65 517.368 449.195 515.028 448.285C512.688 447.332 510.716 446.053 509.113 444.45C507.553 442.847 506.361 441.005 505.538 438.925C504.715 436.845 504.303 434.657 504.303 432.36C504.303 429.067 505.018 426.055 506.448 423.325C507.878 420.552 509.98 418.342 512.753 416.695C515.526 415.005 518.95 414.16 523.023 414.16C527.096 414.16 530.52 414.983 533.293 416.63C536.066 418.277 538.168 420.443 539.598 423.13C541.028 425.817 541.743 428.742 541.743 431.905C541.743 432.555 541.7 433.227 541.613 433.92C541.57 434.57 541.505 435.155 541.418 435.675H517.433C517.52 436.888 517.845 437.885 518.408 438.665C519.015 439.402 519.751 439.943 520.618 440.29C521.528 440.637 522.46 440.81 523.413 440.81C524.756 440.81 526.013 440.507 527.183 439.9C528.396 439.293 529.198 438.448 529.588 437.365L540.053 440.355C539.143 442.175 537.865 443.778 536.218 445.165C534.615 446.552 532.708 447.657 530.498 448.48C528.288 449.26 525.796 449.65 523.023 449.65ZM517.173 428.265H528.483C528.353 427.138 528.028 426.185 527.508 425.405C527.031 424.625 526.381 424.018 525.558 423.585C524.778 423.152 523.868 422.935 522.828 422.935C521.788 422.935 520.856 423.152 520.033 423.585C519.253 424.018 518.603 424.625 518.083 425.405C517.606 426.185 517.303 427.138 517.173 428.265ZM562.632 449.65C559.642 449.65 556.977 449.195 554.637 448.285C552.297 447.332 550.326 446.053 548.722 444.45C547.162 442.847 545.971 441.005 545.147 438.925C544.324 436.845 543.912 434.657 543.912 432.36C543.912 429.067 544.627 426.055 546.057 423.325C547.487 420.552 549.589 418.342 552.362 416.695C555.136 415.005 558.559 414.16 562.632 414.16C566.706 414.16 570.129 414.983 572.902 416.63C575.676 418.277 577.777 420.443 579.207 423.13C580.637 425.817 581.352 428.742 581.352 431.905C581.352 432.555 581.309 433.227 581.222 433.92C581.179 434.57 581.114 435.155 581.027 435.675H557.042C557.129 436.888 557.454 437.885 558.017 438.665C558.624 439.402 559.361 439.943 560.227 440.29C561.137 440.637 562.069 440.81 563.022 440.81C564.366 440.81 565.622 440.507 566.792 439.9C568.006 439.293 568.807 438.448 569.197 437.365L579.662 440.355C578.752 442.175 577.474 443.778 575.827 445.165C574.224 446.552 572.317 447.657 570.107 448.48C567.897 449.26 565.406 449.65 562.632 449.65ZM556.782 428.265H568.092C567.962 427.138 567.637 426.185 567.117 425.405C566.641 424.625 565.991 424.018 565.167 423.585C564.387 423.152 563.477 422.935 562.437 422.935C561.397 422.935 560.466 423.152 559.642 423.585C558.862 424.018 558.212 424.625 557.692 425.405C557.216 426.185 556.912 427.138 556.782 428.265Z" fill="white"/>
<path d="M112.82 143.453L130.44 172.499L97.5474 144.277L112.82 143.453Z" fill="#05445E"/>
<path d="M321.538 87.8391L315.88 121.337L309.443 78.4773L321.538 87.8391Z" fill="#05445E"/>
<path d="M613.36 174.394L591.343 200.265L607.766 160.158L613.36 174.394Z" fill="#05445E"/>
<path d="M126.373 527.659L153.838 507.664L128.476 542.809L126.373 527.659Z" fill="#05445E"/>
<circle cx="187" cy="165" r="5" fill="#E9246C"/>
<circle cx="656" cy="204" r="5" fill="#E9246C"/>
<circle cx="736" cy="423" r="5" fill="#E9246C"/>
<circle cx="524" cy="249" r="4" fill="#E9246C"/>
<circle cx="358.5" cy="182.5" r="2.5" fill="#E9246C"/>
<circle cx="95.5" cy="242.5" r="2.5" fill="#E9246C"/>
<circle cx="728.5" cy="356.5" r="2.5" fill="#E9246C"/>
<circle cx="159" cy="629" r="5" fill="#E9246C"/>
</g>
<defs>
<clipPath id="clip0_411_367">
<rect width="742" height="650" fill="white"/>
</clipPath>
</defs>
</svg>
