<?xml version="1.0" encoding="UTF-8" standalone="no"?>
<svg
   version="1.2"
   width="1107"
   height="738"
   viewBox="0 0 34200 34200"
   preserveAspectRatio="xMidYMid"
   fill-rule="evenodd"
   stroke-width="28.222"
   stroke-linejoin="round"
   xml:space="preserve"
   id="svg265"
   sodipodi:docname="VirginMary2.svg"
   inkscape:version="1.2.2 (732a01da63, 2022-12-09, custom)"
   xmlns:inkscape="http://www.inkscape.org/namespaces/inkscape"
   xmlns:sodipodi="http://sodipodi.sourceforge.net/DTD/sodipodi-0.dtd"
   xmlns="http://www.w3.org/2000/svg"
   xmlns:svg="http://www.w3.org/2000/svg"
   xmlns:ooo="http://xml.openoffice.org/svg/export"><sodipodi:namedview
   id="namedview267"
   pagecolor="#ffffff"
   bordercolor="#000000"
   borderopacity="0.25"
   inkscape:showpageshadow="2"
   inkscape:pageopacity="0.0"
   inkscape:pagecheckerboard="0"
   inkscape:deskcolor="#d1d1d1"
   inkscape:document-units="mm"
   showgrid="false"
   inkscape:zoom="0.31014856"
   inkscape:cx="612.60966"
   inkscape:cy="232.14682"
   inkscape:window-width="1920"
   inkscape:window-height="1031"
   inkscape:window-x="0"
   inkscape:window-y="25"
   inkscape:window-maximized="1"
   inkscape:current-layer="layer1" />
 <defs
   class="ClipPathGroup"
   id="defs81">
  <clipPath
   id="presentation_clip_path"
   clipPathUnits="userSpaceOnUse">
   <rect
   x="0"
   y="0"
   width="34200"
   height="34200"
   id="rect75" />
  </clipPath>
  <clipPath
   id="presentation_clip_path_shrink"
   clipPathUnits="userSpaceOnUse">
   <rect
   x="34"
   y="34"
   width="34132"
   height="34132"
   id="rect78" />
  </clipPath>
 </defs>
 <defs
   class="TextShapeIndex"
   id="defs85">
  <g
   ooo:slide="id1"
   ooo:id-list="id3 id4 id5 id6 id7 id8 id9 id10 id11 id12 id13 id14 id15 id16 id17 id18 id19 id20 id21"
   id="g83" />
 </defs>
 <defs
   class="EmbeddedBulletChars"
   id="defs117">
  <g
   id="bullet-char-template-57356"
   transform="scale(0.00048828125,-0.00048828125)">
   <path
   d="M 580,1141 L 1163,571 580,0 -4,571 580,1141 Z"
   id="path87" />
  </g>
  <g
   id="bullet-char-template-57354"
   transform="scale(0.00048828125,-0.00048828125)">
   <path
   d="M 8,1128 L 1137,1128 1137,0 8,0 8,1128 Z"
   id="path90" />
  </g>
  <g
   id="bullet-char-template-10146"
   transform="scale(0.00048828125,-0.00048828125)">
   <path
   d="M 174,0 L 602,739 174,1481 1456,739 174,0 Z M 1358,739 L 309,1346 659,739 1358,739 Z"
   id="path93" />
  </g>
  <g
   id="bullet-char-template-10132"
   transform="scale(0.00048828125,-0.00048828125)">
   <path
   d="M 2015,739 L 1276,0 717,0 1260,543 174,543 174,936 1260,936 717,1481 1274,1481 2015,739 Z"
   id="path96" />
  </g>
  <g
   id="bullet-char-template-10007"
   transform="scale(0.00048828125,-0.00048828125)">
   <path
   d="M 0,-2 C -7,14 -16,27 -25,37 L 356,567 C 262,823 215,952 215,954 215,979 228,992 255,992 264,992 276,990 289,987 310,991 331,999 354,1012 L 381,999 492,748 772,1049 836,1024 860,1049 C 881,1039 901,1025 922,1006 886,937 835,863 770,784 769,783 710,716 594,584 L 774,223 C 774,196 753,168 711,139 L 727,119 C 717,90 699,76 672,76 641,76 570,178 457,381 L 164,-76 C 142,-110 111,-127 72,-127 30,-127 9,-110 8,-76 1,-67 -2,-52 -2,-32 -2,-23 -1,-13 0,-2 Z"
   id="path99" />
  </g>
  <g
   id="bullet-char-template-10004"
   transform="scale(0.00048828125,-0.00048828125)">
   <path
   d="M 285,-33 C 182,-33 111,30 74,156 52,228 41,333 41,471 41,549 55,616 82,672 116,743 169,778 240,778 293,778 328,747 346,684 L 369,508 C 377,444 397,411 428,410 L 1163,1116 C 1174,1127 1196,1133 1229,1133 1271,1133 1292,1118 1292,1087 L 1292,965 C 1292,929 1282,901 1262,881 L 442,47 C 390,-6 338,-33 285,-33 Z"
   id="path102" />
  </g>
  <g
   id="bullet-char-template-9679"
   transform="scale(0.00048828125,-0.00048828125)">
   <path
   d="M 813,0 C 632,0 489,54 383,161 276,268 223,411 223,592 223,773 276,916 383,1023 489,1130 632,1184 813,1184 992,1184 1136,1130 1245,1023 1353,916 1407,772 1407,592 1407,412 1353,268 1245,161 1136,54 992,0 813,0 Z"
   id="path105" />
  </g>
  <g
   id="bullet-char-template-8226"
   transform="scale(0.00048828125,-0.00048828125)">
   <path
   d="M 346,457 C 273,457 209,483 155,535 101,586 74,649 74,723 74,796 101,859 155,911 209,963 273,989 346,989 419,989 480,963 531,910 582,859 608,796 608,723 608,648 583,586 532,535 482,483 420,457 346,457 Z"
   id="path108" />
  </g>
  <g
   id="bullet-char-template-8211"
   transform="scale(0.00048828125,-0.00048828125)">
   <path
   d="M -4,459 L 1135,459 1135,606 -4,606 -4,459 Z"
   id="path111" />
  </g>
  <g
   id="bullet-char-template-61548"
   transform="scale(0.00048828125,-0.00048828125)">
   <path
   d="M 173,740 C 173,903 231,1043 346,1159 462,1274 601,1332 765,1332 928,1332 1067,1274 1183,1159 1299,1043 1357,903 1357,740 1357,577 1299,437 1183,322 1067,206 928,148 765,148 601,148 462,206 346,322 231,437 173,577 173,740 Z"
   id="path114" />
  </g>
 </defs>
 
 <g
   inkscape:groupmode="layer"
   id="layer1"
   inkscape:label="Layer 1"><path
     id="path231"
     d="M 15505.979 5686.0097 C 14791.98 5668.0097 13308.008 5883.9784 11999.01 6074.9782 C 10410.011 6305.978 9673.992 6402.9863 9271.9924 6364.9863 C 8497.9932 6388.9863 7839.0121 6525.0246 7289.0127 6716.0244 C 6504.0134 8836.0222 7005.9801 12403.976 7361.9798 13455.975 C 7572.9796 14079.974 9371.0234 14580.99 10304.023 15120.99 C 9821.023 14945.99 8394.9809 14887.984 7153.9821 14266.985 C 6033.9833 13706.985 5928.983 9427.0078 6125.9828 7292.0099 C 5685.9833 7591.0096 5400.0044 7904.005 5262.0045 8138.0048 C 5245.0046 10087.003 5571.0034 13067.975 5749.0033 13455.975 C 5850.0032 13677.975 6108.9965 14240.02 6372.9962 14809.019 C 8170.9944 15891.018 12176.002 15906.024 12774.001 16953.023 C 12903.001 17177.022 13271.013 17536.979 13508.013 17877.979 L 13531.991 17870.021 L 13560 17956.01 C 13660.999 18114.01 13727.008 18266.02 13719.008 18394.02 C 13718.008 18408.02 13716.977 18420.005 13714.977 18429.005 L 14483.974 20784.985 L 14722.978 21513.985 C 14761.978 21635.984 14802.007 21754.024 14841.007 21882.024 C 14876.007 22008.024 14906.009 22134.004 14932.009 22259.004 C 15025.009 22700.003 15098.018 23142.003 15165.018 23586.003 C 15396.018 24660.002 15683.015 26023.984 15672.015 26146.984 C 15653.015 26351.983 15348.975 25923.017 15192.975 25513.017 C 15064.975 25175.017 14886.975 23009.986 14725.975 21977.987 C 14719.975 21960.987 14715.025 21943.001 14709.025 21926.001 C 14665.025 21812.001 14612.985 21690.981 14565.985 21573.981 L 14274.995 20863.998 L 13206.998 18257.026 C 13120.998 18276.026 12999.978 18292.017 12891.978 18266.017 C 12887.978 18274.017 12883.008 18281.013 12879.008 18289.013 L 12719.017 18196.978 C 12722.017 18200.978 12723.978 18205.982 12723.978 18210.982 C 12727.978 18237.982 12720.979 18290.02 12703.979 18357.02 L 12804.025 18415.982 C 12739.025 18524.982 12673.016 18630.02 12608.016 18730.02 L 12571.998 18705.991 C 12550.998 18748.99 12527.976 18791.99 12501.976 18836.99 L 12526.006 18853.01 C 12450.006 18964.01 12376.001 19065.025 12307.001 19154.025 L 12289.018 19140.021 C 12257.018 19178.021 12223.99 19214.988 12187.99 19249.988 L 12210.986 19271.021 C 12111.986 19387.021 12020.016 19478.994 11936.016 19542.994 L 11891.988 19485.995 C 11848.988 19512.995 11804.991 19536.995 11757.991 19559.995 L 11794.991 19631.981 C 11685.991 19686.98 11561.024 19730.001 11423.024 19759.001 L 11406.022 19676.009 C 11358.023 19685.009 11309.003 19692.989 11259.003 19696.989 L 11270.01 19784.013 C 11178.01 19796.013 11079.996 19799.996 10985.996 19801.996 C 10952.996 19801.996 10919.984 19801.981 10886.984 19799.981 L 10891.997 19690.013 C 10880.997 19689.013 10869.994 19687.982 10857.994 19685.982 C 10820.994 19680.982 10783.975 19674.999 10747.975 19667.999 L 10734.022 19787.992 C 10598.022 19772.992 10470.975 19745.015 10354.975 19707.015 L 10399.004 19576.015 C 10353.004 19561.015 10309.025 19545.026 10264.025 19527.026 L 10208.008 19648.982 C 10182.008 19636.982 10157.025 19624 10133.025 19611 C 10126.025 19607 10119.975 19603.011 10112.975 19599.011 C 10136.975 19652.011 10159.978 19706.001 10183.978 19759.001 C 10337.978 20084.001 10516.014 20403.979 10706.013 20716.979 C 11088.013 21343.978 11514.989 21949.024 11965.988 22537.023 C 12368.988 23057.022 12789.976 23565.019 13230.976 24055.018 C 13783.975 24669.018 13832.987 24859.992 13292.987 24343.993 C 12750.988 23828.993 12232.976 23287.985 11735.976 22726.986 C 11240.977 22163.986 10766.979 21579.976 10331.979 20961.977 C 10113.98 20652.977 9906.9934 20334.023 9718.9936 19997.023 C 9626.9937 19826.023 9538.0066 19653.014 9462.0067 19465.014 C 9425.0067 19370.014 9388.9974 19274.011 9359.9974 19169.011 C 9341.9974 19103.011 9327.0026 19030.004 9317.0026 18953.004 C 9071.0029 18749.004 8879.0087 18542.989 8750.0088 18389.989 C 8664.0089 18329.989 8597.0056 18275.017 8548.0056 18229.017 C 8579.0056 18995.016 9659.9823 20805.998 10983.981 22472.996 C 12326.98 24163.994 13271.995 25232.998 15658.993 27122.996 C 16372.992 27687.996 16949.018 28088.006 17463.017 28458.005 L 17387.983 28321.011 L 15951.016 27117.002 L 15507.994 26322.012 L 15675.013 26365.006 L 15942.025 26433.013 C 16135.025 26475.013 16319.984 26495.005 16490.984 26479.005 C 16614.983 26471.005 16738.984 26452.015 16863.984 26430.015 C 16972.984 26407.015 17095.01 26367.991 17210.009 26325.991 C 17443.009 26240.991 17672.01 26139.017 17882.01 26017.017 C 17933.01 25985.017 17986.024 25955.002 18035.024 25921.003 C 18060.024 25905.003 18083.991 25887.98 18107.991 25870.98 C 18131.991 25852.98 18153.986 25836.981 18187.986 25813.981 C 18314.986 25724.981 18441.015 25664.016 18568.014 25607.017 C 18823.014 25498.017 19078.014 25417.996 19334.014 25348.996 C 19588.014 25279.996 19848.007 25223.994 20089.007 25163.994 C 20120.007 25155.994 20146.981 25148.017 20172.981 25140.017 L 20203.005 25131.025 C 20212.005 25127.025 20220.996 25123.021 20231.996 25117.021 C 20272.996 25095.021 20317.98 25059.006 20360.98 25021.006 C 20446.98 24943.006 20528.02 24849.996 20598.02 24750.996 C 20669.02 24651.996 20727.977 24543 20756.976 24429.001 C 20770.976 24372.001 20776.007 24313.003 20761.007 24258.003 C 20747.007 24202.003 20705.988 24150.981 20650.988 24113.981 C 20715.988 24126.981 20778.985 24167.013 20821.985 24229.013 C 20861.985 24292.013 20877.018 24368.008 20880.018 24440.008 C 20884.018 24587.007 20840.998 24723.988 20789.998 24853.988 C 20735.998 24983.987 20666.006 25106.012 20576.006 25220.012 C 20531.006 25278.012 20480.982 25331.981 20414.982 25383.981 C 20397.982 25396.981 20378.998 25410.015 20359.998 25422.015 L 20328.01 25439.998 C 20317.01 25445.998 20309.984 25448.021 20300.984 25453.021 L 20249.979 25476.999 L 20200.99 25496.016 C 19945.99 25596.015 19701.022 25670.984 19456.022 25753.984 C 19213.023 25835.984 18972.003 25919.017 18748.003 26017.017 C 18637.004 26066.017 18525.978 26117.989 18438.978 26177.989 C 18417.978 26189.989 18387.02 26211.009 18357.02 26231.009 C 18328.02 26251.009 18297.999 26270.009 18266.999 26288.009 C 18206.999 26325.009 18145.979 26359.018 18082.979 26390.018 C 17833.98 26515.018 17574.006 26604.988 17307.006 26664.988 C 17172.006 26693.988 17041.011 26718.021 16891.011 26723.021 C 16756.011 26724.021 16618.992 26718.991 16481.992 26698.991 C 16389.992 26685.991 16288.986 26664.016 16188.986 26635.016 L 16848.016 27498.012 C 16926.016 27440.012 17024.984 27436.978 17125.984 27459.978 C 17386.983 27495.978 18218.986 27850.985 18654.986 27937.985 C 18934.986 27993.985 19102.005 27509.019 19625.004 27509.019 C 20147.004 27509.019 21882.008 27304.019 22199.007 27173.019 C 22516.007 27043.019 22953.979 26520.001 23387.979 26707.001 C 22972.979 26632.001 22591.008 27322.008 22404.008 27447.008 C 22217.008 27572.007 20016.004 28552.986 19326.004 28515.986 C 18636.005 28478.986 17906.016 28100.003 17856.017 28068.003 C 17725.017 27984.003 17328.987 27846.018 17065.987 27734.019 L 17617.013 28333 C 17840.013 28536 18123.001 28756.018 18452.001 28930.018 C 19181 29111.018 20244.025 29409.997 21210.024 28839.998 C 22255.023 28224.998 22292.026 27790.985 22833.026 27265.985 C 22653.026 27931.984 22479.025 28981.988 22292.025 29261.987 C 22105.025 29541.987 21117.004 30013.999 20371.005 29995.999 C 20220.005 29991.999 20062.002 29966.975 19907.003 29928.975 C 19994.002 30026.975 20080.02 30124.02 20168.02 30217.019 C 20248.02 30303.019 20329.982 30383.023 20414.982 30456.023 L 20479.009 30508.991 L 20545 30556.017 C 20567 30574.017 20590.024 30580.999 20612.024 30593.999 C 20635.024 30604.999 20654.994 30617.987 20681.994 30625.987 C 20885.994 30703.987 21119.997 30744.009 21350.997 30770.009 C 21815.997 30814.009 22292.01 30803.004 22757.01 30719.004 C 23221.009 30639.004 23680.01 30481.005 24064.01 30195.005 C 23700.01 30505.005 23242.974 30698.007 22775.975 30810.007 C 22307.975 30926.006 21823.974 30970.992 21337.975 30955.992 C 21093.975 30943.993 20850.98 30921.991 20602.981 30844.992 C 20571.981 30837.992 20539.999 30822.025 20507.999 30809.025 C 20477.999 30794.025 20442.997 30782.015 20416.997 30764.015 L 20333.023 30713.01 L 20256.025 30656.993 C 20155.025 30580.993 20061.011 30500.007 19972.011 30417.007 C 19793.012 30250.007 19626.986 30077.004 19457.986 29916.004 C 19372.986 29835.004 19287.981 29757.987 19201.981 29691.987 C 19191.981 29683.987 19182.009 29676.991 19172.009 29668.991 C 19117.009 29643.991 19065.995 29620.987 19018.995 29597.987 C 18988.995 29610.987 18958.992 29624.021 18927.992 29636.021 C 19164.992 29864.021 19407.005 30118.023 19662.005 30419.023 C 20528.004 31437.022 22139.991 31325.983 23076.99 31152.983 C 24736.988 30604.984 25407.018 29535.986 25755.018 28888.987 C 26017.018 28402.987 27758.013 25248 28731.012 23213.002 L 28685.02 23190.006 C 29227.019 22136.007 29584.002 20348.986 29227.002 18671.987 C 28828.003 19668.986 28085.978 21250.016 26898.979 22808.014 C 28465.977 18893.018 28181.975 17982.004 27798.976 16729.005 C 27563.976 15958.006 27023.001 15360.976 26576.001 15733.975 C 26208.002 16040.975 25521.986 17416.98 24480.987 18176.979 C 24458.987 18195.979 24438.012 18214.996 24417.012 18232.996 L 24411.999 18227.002 C 24368.999 18256.002 24327.015 18283.976 24283.015 18310.976 L 24295.985 18329.011 C 24188.985 18411.011 24081.987 18484 23976.987 18546 L 23944.999 18491.017 C 23897.999 18512.017 23850.992 18530.998 23802.992 18548.998 L 23840.974 18622.016 C 23716.975 18685.016 23594.002 18734.984 23475.002 18768.984 L 23443.996 18662.014 C 23395.996 18675.014 23348.025 18688.014 23300.025 18699.014 L 23324.003 18807.018 C 23206.003 18833.018 23078.99 18854.975 22945.99 18871.975 L 22933.019 18770.999 C 22884.019 18778.999 22834.018 18785.98 22785.018 18791.98 L 22794.01 18888.977 C 22668.01 18899.977 22539.999 18908.009 22412.999 18910.009 L 22412.018 18824.019 C 22361.018 18827.019 22311.019 18828.98 22261.019 18828.98 L 22259.986 18910.009 C 22131.986 18909.009 22003.975 18901.992 21878.975 18890.992 L 21885.021 18821.022 C 21835.021 18818.022 21785.005 18813.982 21735.005 18808.982 L 21726.995 18873.991 C 21598.995 18858.991 21472.015 18836.997 21350.015 18810.997 L 21361.022 18756.995 C 21311.022 18746.995 21262.021 18736.989 21213.021 18725.989 L 21199.999 18776.994 C 21074.999 18745.994 20951.992 18707.993 20832.993 18665.993 L 20849.012 18622.016 C 20800.012 18606.016 20753.023 18587.996 20706.024 18568.996 L 20689.022 18611.991 C 20570.022 18563.991 20451.999 18510.019 20339.999 18451.019 L 20363.977 18404.975 C 20319.977 18378.975 20276.975 18351.98 20235.975 18324.98 L 20205.021 18375.985 C 20095.021 18311.985 19987.006 18240.008 19884.007 18164.008 L 19941.987 18085.977 C 19918.987 18062.977 19880.02 18028.019 19832.02 17984.019 L 19761.998 18070.009 C 19662.999 17989.009 19567.003 17902.006 19477.003 17811.006 L 19559.013 17731.011 C 19533.013 17706.011 19507.979 17681.974 19483.979 17658.974 C 19115.98 17565.974 18801.005 17434.98 18597.005 17259.981 C 18087.005 17350.98 17274.018 17408.018 16902.018 17238.018 C 16657.018 17125.018 16474.99 17225.004 16333.991 17347.004 C 15873.991 18372.003 15864.016 20406.009 15746.016 19787.01 C 15597.016 19003.011 15279.981 17398.99 15297.981 17099.99 C 15325.981 16650.991 15698.001 16013.985 16006 15704.985 C 16219 15389.985 16545.983 15099.989 17051.983 14878.989 C 17665.982 14610.989 19082.002 14312.975 20582 13996.975 C 21643.999 13772.976 22741.977 13541.004 23595.976 13312.004 C 24413.976 13092.005 24772.004 12933.976 24930.004 12837.976 C 24510.004 11864.977 22868.981 10395.019 21815.982 9635.0194 C 21086.982 9494.0195 20275.021 9269.9959 19382.022 8482.9967 C 18796.022 7966.9972 18320.975 7520.0098 17937.975 7161.0101 C 16714.977 6010.0113 16358.978 5708.0097 15505.979 5686.0097 z M 25201.977 13099.976 C 24688.977 13478.976 23244.995 13816.985 20658.998 14360.984 C 20204.998 14456.984 19757.99 14550.983 19340.991 14642.983 C 18702.991 14881.982 17898.002 15210.004 17498.002 15479.004 C 17951.002 15590.004 18631.022 15971.986 19214.022 15721.987 C 19998.021 15385.987 24785.017 14540.025 25009.017 13943.025 C 25074.017 13662.026 25262.977 13446.976 25201.977 13099.976 z M 24446.364 15120.68 C 23714.083 15130.336 22254.756 15416.992 21453.006 15584.992 C 20383.007 15808.992 19537.986 15908.011 19064.987 16555.011 C 19059.987 16562.011 19053.003 16568.991 19047.003 16575.991 C 20067.002 16823.991 22161.992 16754.003 22757.991 16601.003 C 23499.991 16410.003 24274.011 15955.986 24736.01 15684.986 C 24838.01 15624.986 24917.008 15577.979 24981.008 15542.979 C 24956.008 15406.979 24915.993 15291.986 24884.993 15217.986 C 24853.743 15144.986 24690.457 15117.461 24446.364 15120.68 z M 25001.007 15703.021 C 24942.007 15737.021 24875.993 15774.989 24810.993 15812.989 C 24341.993 16088.988 23557.991 16549.025 22794.992 16745.025 C 22498.992 16821.025 21725.992 16885.998 20906.993 16885.998 C 20205.994 16885.998 19473.999 16837.988 18976 16709.988 C 18823 16821.988 18873.976 17041.002 18982.976 17162.002 C 19219.976 17290.002 19566.998 17390.987 19986.998 17458.986 C 20158.997 17477.986 20346.975 17500.995 20534.975 17523.995 C 20767.974 17542.995 21014.002 17554.019 21271.002 17554.019 L 21276.996 17554.019 C 22415.995 17553.019 23434.982 17355.988 23982.981 17045.988 C 24647.981 16684.989 24840.997 16325.019 24955.997 16116.019 C 25000.997 15977.019 25010.007 15835.021 25001.007 15703.021 z M 10407.014 16925.996 C 8908.0151 16880.996 8281.0124 17131.998 7793.0129 17016.998 C 7958.0128 17172.998 8121.0185 17339.989 8254.0184 17512.988 C 8703.0179 17561.988 9269.9884 17548.005 9855.9878 17532.005 C 10182.988 17524.005 10512.019 17515.019 10831.019 17517.019 C 10796.019 17359.019 10607.013 17130.996 10407.014 16925.996 z M 8366.0012 17671.997 C 8323.0013 17841.997 8410.9931 17968.018 8542.993 18135.018 L 9248.0146 18337.021 C 9744.0141 18451.021 10260.021 18519.011 10586.021 18460.011 C 11178.02 18354.011 12459.994 18060.985 12688.993 18170.984 C 12710.993 18132.984 12728.995 18101.003 12742.995 18076.003 C 12725.995 18054.003 12704.02 18031.997 12679.02 18007.997 C 12106.02 17622.997 10966.017 17652.988 9860.0186 17680.988 C 9324.0191 17694.988 8804.0008 17708.997 8366.0012 17671.997 z M 16051.837 28619.546 C 15977.226 28605.513 15915.624 28656.35 15857.999 28789.975 C 15467.999 29693.974 17564.976 32240.017 18441.976 33247.016 C 19907.974 33126.016 21319.007 32809.989 22649.006 32322.989 C 17735.011 31995.74 16574.116 28717.778 16051.837 28619.546 z "
     style="fill:#ffeeaa" /><path
     id="path245"
     d="M 17099.99 894.98416 C 16563.991 894.98416 16035.007 922.01562 15513.007 973.01557 C 14527.008 1946.0146 12414.995 4006.9813 11284.996 4895.9804 C 11467.996 4869.9804 11648.023 4844.016 11816.023 4820.016 C 13242.022 4612.0162 14716.019 4398.025 15538.018 4418.025 C 16740.017 4449.025 17375.015 4910.023 18363.014 5822.0221 C 18703.014 5048.0228 20911.006 2406.9876 21641.005 1543.9885 C 20199.007 1122.9889 18674.989 894.98416 17099.99 894.98416 z M 12338.007 1844.0219 L 12293.979 1871.9788 L 6196.0044 5612.009 L 8086.0183 5210.9999 L 9889.0091 4829.0077 L 10276.996 4356.0133 L 12301.007 1890.0139 L 12338.007 1844.0219 z M 22962.992 1993.9869 C 22414.992 3191.9857 21346.985 6711.9945 20784.985 7944.9933 C 21308.985 8254.993 21798.994 8344.9992 22344.993 8442.9991 C 23245.992 8606.9989 24244.984 8789.0242 25269.983 10042.023 C 25752.982 8674.0244 26446.984 5612.9869 26912.983 4214.9883 C 25715.985 3300.9892 24387.99 2548.9863 22962.992 1993.9869 z M 27541.989 4720.0221 L 27250.999 12201.013 C 27737.998 12466.012 28288.977 12689.988 28806.976 12899.988 C 29478.976 13171.988 30092.988 13420.999 30531.987 13747.998 C 30614.987 11831 30600.02 9204.0065 30590.02 8135.0076 C 29739.021 6858.0088 28710.988 5708.0211 27541.989 4720.0221 z M 31377 9444.0233 C 31452 11279.021 31663.982 16490.991 31713.982 17697.99 C 31888.982 17781.99 32043.005 17871.02 32157.004 17964.02 L 32897.993 13496.024 C 32571.993 12064.026 32055 10705.022 31377 9444.0233 z M 33131.984 14753.002 L 32396.008 19132.011 C 32368.008 20367.01 32150.975 22390.978 32038.976 23370.977 C 32852.975 21439.979 33302.981 19320.988 33302.981 17099.99 C 33302.981 16302.991 33243.984 15520.001 33131.984 14753.002 z "
     style="fill:#ff0000" /><path
     id="path182"
     d="M 4951.0158 7418.9789 L 4932.9807 7440.0112 C 4827.9808 7950.0107 4790.9932 8472.9919 4769.9932 8992.9914 C 4759.9932 9147.9912 4761.9861 9302.9761 4758.9861 9457.9759 L 4755.9889 9690.0031 L 4760.0197 9921.9786 C 4763.0197 10076.978 4763.0114 10232.015 4769.0114 10387.015 L 4789.0101 10851.018 C 4855.0101 12089.016 5013.9878 13322.026 5242.9876 14541.025 C 5468.9874 15761.024 5780.01 16964.99 6153.0096 18147.988 C 6248.0095 18443.988 6339.0123 18739.984 6449.0122 19030.984 L 6606.9871 19468.993 L 6686.9822 19687.998 C 6713.9822 19760.998 6743.99 19831.987 6771.9899 19904.987 C 6888.9898 20191.987 7001.0127 20482.017 7121.0126 20769.017 L 7497.9922 21621.006 C 8025.9916 22746.005 8621.9974 23839.025 9285.9968 24889.024 L 9798.0069 25667.995 L 10342.005 26424.021 L 10478.017 26613.002 C 10525.017 26675.002 10573.988 26735.021 10621.988 26797.021 L 10911.014 27162.012 L 11201.022 27526.021 C 11298.022 27648.021 11403.983 27761.023 11504.983 27879.023 C 12302.982 28831.022 13196.979 29698.002 14124.978 30517.001 L 14835.994 31115.001 C 15078.994 31307.001 15328.019 31492.016 15575.019 31678.016 L 15945.022 31957.017 L 16328.978 32217.983 L 17099.008 32732.99 L 16361.999 32171.991 L 15992.978 31892.99 L 15638.012 31596.987 C 15403.013 31397.987 15162.011 31206 14929.012 31004 L 14248.02 30380.989 C 14016.02 30177.989 13803.011 29956.012 13585.011 29739.012 L 13258.984 29412.986 C 13204.984 29357.986 13149.979 29305.016 13096.979 29249.017 L 12942.001 29078.019 L 12320.024 28398.009 C 12118.024 28167.009 11925.018 27927.005 11728.018 27692.006 C 10166.02 25796.007 8871.0067 23689.011 7836.0077 21464.013 C 7316.0082 20353.015 6872.9759 19205.002 6487.9763 18039.003 C 6099.9766 16875.004 5785.001 15685.973 5527.0013 14483.974 C 5496.0013 14333.974 5462.0018 14183.994 5433.0019 14032.994 L 5348.976 13579.016 C 5289.976 13277.017 5246.0137 12972.976 5196.0137 12669.976 L 5159.9953 12441.98 L 5128.9894 12213.002 L 5066.9777 11755.975 C 5047.9777 11602.975 5034.0066 11450.019 5017.0066 11298.019 C 5001.0066 11145.019 4982.0145 10991.995 4971.0145 10837.995 C 4912.0146 10225.996 4881.9843 9610.0061 4872.9843 8995.0068 C 4872.9843 8841.0069 4869.0179 8687.0193 4874.0179 8533.0194 C 4880.0179 8379.0196 4879.9859 8224.9803 4889.9859 8070.9805 C 4901.9859 7917.9806 4906.0198 7763.0084 4928.0198 7611.0085 C 4936.0197 7547.0086 4942.0158 7481.9788 4951.0158 7418.9789 z M 3966.9931 8651.9786 C 3945.9931 8679.9786 3925.9814 8707.0227 3904.9814 8735.0226 C 3871.9814 9021.0223 3853.0087 9309.004 3838.0087 9596.0037 C 3809.0088 10188.003 3807.0198 10782.017 3826.0198 11375.017 C 3864.0198 12560.015 3970.0241 13743.988 4139.024 14918.986 C 4185.0239 15211.986 4225.9847 15505.985 4274.9847 15798.984 C 4326.9846 16090.984 4377.9931 16384.004 4433.993 16675.003 L 4613.0002 17546.991 L 4815.0034 18414.019 C 5100.0031 19568.018 5445.0031 20706.008 5843.0027 21826.007 C 6643.0019 24065.005 7698.9859 26217.026 9018.9846 28195.024 C 9684.984 29180.023 10419.012 30118.004 11213.011 31001.003 C 12010.01 31857.002 12864.023 32657.977 13778.022 33382.976 C 13780.022 33382.976 13782.999 33384.01 13784.999 33384.01 C 12922 32596.011 12106.004 31765.976 11350.005 30879.976 C 10595.006 29974.977 9901.0001 29024.015 9263.0008 28036.016 C 8632.0014 27043.017 8063.9754 26011.999 7552.9759 24953 C 7429.976 24686 7297.9934 24424.012 7178.9935 24155.012 L 6827.0253 23346.018 C 6607.0256 22801.018 6386.9888 22256.019 6193.989 21700.02 C 5793.9894 20595.021 5450.9977 19468.01 5156.998 18329.011 C 4857.9983 17190.012 4623.983 16036.009 4425.9832 14875.01 C 4232.9834 13713.011 4088.0241 12542.024 4008.0242 11366.025 C 3963.0242 10778.025 3943.018 10188 3940.018 9599.0009 C 3939.018 9304.0012 3946.014 9008.99 3963.014 8713.9903 C 3965.014 8693.9903 3965.9931 8672.9786 3966.9931 8651.9786 z M 2852.0224 10812.984 C 2237.023 15681.979 2156.018 25850.025 8878.0113 31057.02 C 9408.0108 31370.02 9956.9761 31653.994 10522.976 31906.994 C 8574.9775 30575.995 6387.0208 28472.981 5187.022 25417.984 C 3631.0236 21453.988 2801.0224 14346.98 2852.0224 10812.984 z M 2004.0121 11208.98 C 1289.0128 13035.978 894.98416 15022.992 894.98416 17099.99 C 894.98416 20289.987 1822.9969 23268.98 3422.9953 25779.978 C 1030.9977 20671.983 1412.0127 14797.977 2004.0121 11208.98 z "
     style="fill:#784421" /><path
     fill="#100f0d"
     stroke="none"
     d="m 10305,15122 c 79,29 133,60 157,97 -48,-32 -101,-65 -157,-97 z m 22828,-368 c 112,767 171,1550 171,2347 0,2221 -450,4340 -1264,6271 112,-980 329,-3004 357,-4239 z m -234,-1257 -741,4468 c -114,-93 -268,-182 -443,-266 -50,-1207 -262,-6419 -337,-8254 678,1261 1195,2620 1521,4052 z m -4091,-596 c -518,-210 -1069,-434 -1556,-699 l 291,-7481 c 1169,988 2197,2138 3048,3415 10,1069 25,3696 -58,5613 -439,-327 -1053,-576 -1725,-848 z m -76,10313 c -973,2035 -2714,5190 -2976,5676 -348,647 -1018,1716 -2678,2264 -937,173 -2549,284 -3415,-734 -255,-301 -497,-555 -734,-783 31,-12 61,-25 91,-38 47,23 98,46 153,71 10,8 20,15 30,23 86,66 171,143 256,224 169,161 335,334 514,501 89,83 183,164 284,240 l 77,56 84,51 c 26,18 61,30 91,45 32,13 64,29 95,36 248,77 491,99 735,111 486,15 970,-30 1438,-146 467,-112 924,-305 1288,-615 -384,286 -843,444 -1307,524 -465,84 -941,95 -1406,51 -231,-26 -465,-66 -669,-144 -27,-8 -47,-21 -70,-32 -22,-13 -45,-20 -67,-38 l -66,-47 -64,-53 c -85,-73 -167,-153 -247,-239 -88,-93 -174,-190 -261,-288 155,38 313,63 464,67 746,18 1734,-454 1921,-734 187,-280 541,-1996 541,-1996 0,0 -578,959 -1623,1574 -966,570 -2029,271 -2758,90 -329,-174 -612,-394 -835,-597 l -551,-599 c 0,0 659,250 790,334 50,32 780,411 1470,448 690,37 2891,-944 3078,-1069 187,-125 569,-815 984,-740 -434,-187 -872,336 -1189,466 -317,131 -2052,336 -2574,336 -523,0 -690,485 -970,429 -436,-87 -1268,-442 -1529,-478 -101,-23 -200,-20 -278,38 l -659,-863 c 100,29 201,51 293,64 137,20 274,25 409,24 150,-5 281,-29 416,-58 267,-60 527,-150 776,-275 63,-31 124,-65 184,-102 31,-18 61,-37 90,-57 30,-20 61,-41 82,-53 87,-60 198,-112 309,-161 224,-98 465,-181 708,-263 245,-83 490,-158 745,-258 l 49,-19 51,-24 c 9,-5 16,-7 27,-13 l 32,-18 c 19,-12 38,-25 55,-38 66,-52 116,-106 161,-164 90,-114 160,-236 214,-366 51,-130 94,-267 90,-414 -3,-72 -18,-148 -58,-211 -43,-62 -106,-102 -171,-115 55,37 96,88 110,144 15,55 10,114 -4,171 -29,114 -88,223 -159,322 -70,99 -151,192 -237,270 -43,38 -88,74 -129,96 -11,6 -20,10 -29,14 l -30,9 c -26,8 -53,16 -84,24 -241,60 -501,116 -755,185 -256,69 -511,149 -766,258 -127,57 -253,118 -380,207 -34,23 -56,39 -80,57 -24,17 -48,34 -73,50 -49,34 -102,64 -153,96 -210,122 -439,224 -672,309 -115,42 -237,81 -346,104 -125,22 -249,41 -373,49 -171,16 -356,-4 -549,-46 l -267,-68 v 0 l -167,-43 443,795 1437,1204 75,137 c -514,-370 -1090,-770 -1804,-1335 -2387,-1890 -3332,-2959 -4675,-4650 -1324,-1667 -2405,-3478 -2436,-4244 49,46 116,101 202,161 129,153 321,359 567,563 10,77 25,150 43,216 29,105 65,201 102,296 76,188 165,361 257,532 188,337 395,656 613,965 435,618 909,1202 1404,1765 497,561 1015,1102 1557,1617 540,516 491,325 -62,-289 -441,-490 -862,-998 -1265,-1518 -451,-588 -878,-1193 -1260,-1820 -190,-313 -368,-633 -522,-958 -24,-53 -47,-107 -71,-160 7,4 13,8 20,12 24,13 49,26 75,38 l 56,-122 c 45,18 89,34 135,49 l -44,131 c 116,38 243,66 379,81 l 14,-120 c 36,7 73,13 110,18 12,2 23,3 34,4 l -5,110 c 33,2 66,2 99,2 94,-2 192,-6 284,-18 l -11,-87 c 50,-4 99,-12 147,-21 l 17,83 c 138,-29 263,-72 372,-127 l -37,-72 c 47,-23 91,-47 134,-74 l 44,57 c 84,-64 176,-156 275,-272 l -23,-21 c 36,-35 69,-72 101,-110 l 18,14 c 69,-89 143,-190 219,-301 l -24,-16 c 26,-45 49,-88 70,-131 l 36,24 c 65,-100 131,-205 196,-314 l -100,-59 c 17,-67 24,-119 20,-146 0,-5 -2,-10 -5,-14 l 160,92 c 4,-8 9,-15 13,-23 108,26 229,10 315,-9 l 1068,2607 291,710 c 47,117 99,238 143,352 6,17 11,35 17,52 161,1032 339,3197 467,3535 156,410 460,839 479,634 11,-123 -276,-1487 -507,-2561 -67,-444 -140,-886 -233,-1327 -26,-125 -56,-251 -91,-377 -39,-128 -79,-246 -118,-368 l -239,-729 -769,-2356 c 2,-9 3,-21 4,-35 8,-128 -58,-280 -159,-438 l -28,-86 -24,8 c -237,-341 -605,-701 -734,-925 -598,-1047 -4603,-1062 -6401,-2144 -264,-569 -523,-1131 -624,-1353 -178,-388 -504,-3369 -487,-5318 138,-234 424,-547 864,-846 -197,2135 -92,6415 1028,6975 1241,621 2667,679 3150,854 -933,-540 -2731,-1041 -2942,-1665 -356,-1052 -858,-4620 -73,-6740 550,-191 1209,-327 1983,-351 402,38 1138,-59 2727,-290 1309,-191 2793,-407 3507,-389 853,22 1209,324 2432,1475 383,359 858,806 1444,1322 893,787 1705,1011 2434,1152 1053,760 2694,2230 3114,3203 -158,96 -516,254 -1334,474 -854,229 -1952,461 -3014,685 -1500,316 -2916,614 -3530,882 -506,221 -833,511 -1046,826 -308,309 -680,946 -708,1395 -18,299 299,1903 448,2687 118,619 128,-1415 588,-2440 141,-122 323,-222 568,-109 372,170 1185,113 1695,22 204,175 519,306 887,399 24,23 49,47 75,72 l -82,80 c 90,91 186,178 285,259 l 70,-86 c 48,44 87,79 110,102 l -58,78 c 103,76 211,148 321,212 l 31,-51 c 41,27 84,54 128,80 l -24,46 c 112,59 230,113 349,161 l 17,-43 c 47,19 94,37 143,53 l -16,44 c 119,42 242,80 367,111 l 13,-51 c 49,11 98,21 148,31 l -11,54 c 122,26 249,48 377,63 l 8,-65 c 50,5 100,9 150,12 l -6,70 c 125,11 253,18 381,19 l 1,-81 c 50,0 100,-2 151,-5 l 1,86 c 127,-2 255,-10 381,-21 l -9,-97 c 49,-6 99,-13 148,-21 l 13,101 c 133,-17 260,-39 378,-65 l -24,-108 c 48,-11 96,-24 144,-37 l 31,107 c 119,-34 242,-84 366,-147 l -38,-73 c 48,-18 95,-37 142,-58 l 32,55 c 105,-62 212,-135 319,-217 l -13,-18 c 44,-27 86,-55 129,-84 l 5,6 c 21,-18 42,-37 64,-56 1041,-760 1727,-2136 2095,-2443 447,-373 988,224 1223,995 383,1253 667,2164 -900,6079 1187,-1558 1929,-3139 2328,-4136 357,1677 0,3464 -542,4518 z m -12873,5577 c 461,-1069 1175,3159 6791,3533 -1330,487 -2741,803 -4207,924 -877,-1007 -2974,-3553 -2584,-4457 z M 12744,18077 c -14,25 -32,57 -54,95 -229,-110 -1511,183 -2103,289 -326,59 -842,-9 -1338,-123 l -705,-202 c -132,-167 -220,-293 -177,-463 438,37 958,23 1494,9 1106,-28 2246,-58 2819,327 25,24 47,46 64,68 z m -4489,-563 c -133,-173 -296,-340 -461,-496 488,115 1115,-136 2614,-91 200,205 389,433 424,591 -319,-2 -648,7 -975,15 -586,16 -1153,30 -1602,-19 z m 8075,14705 -384,-261 -370,-279 c -247,-186 -496,-371 -739,-563 l -711,-598 c -928,-819 -1822,-1686 -2620,-2638 -101,-118 -207,-231 -304,-353 l -290,-364 -289,-365 c -48,-62 -97,-122 -144,-184 l -136,-189 -544,-756 -512,-779 C 8623,23840 8027,22747 7499,21622 l -377,-852 c -120,-287 -232,-577 -349,-864 -28,-73 -58,-144 -85,-217 l -80,-219 -158,-438 c -110,-291 -201,-587 -296,-883 -373,-1183 -684,-2387 -910,-3607 -229,-1219 -388,-2452 -454,-3690 l -20,-464 c -6,-155 -6,-310 -9,-465 l -4,-232 3,-232 c 3,-155 1,-310 11,-465 21,-520 58,-1043 163,-1553 6,-7 12,-14 18,-21 -9,63 -15,128 -23,192 -22,152 -26,307 -38,460 -10,154 -10,308 -16,462 -5,154 -1,308 -1,462 9,615 39,1231 98,1843 11,154 30,307 46,460 17,152 31,305 50,458 l 62,457 31,229 36,228 c 50,303 94,607 153,909 l 84,454 c 29,151 63,301 94,451 258,1202 573,2391 961,3555 385,1166 828,2314 1348,3425 1035,2225 2330,4332 3892,6228 197,235 390,475 592,706 l 622,680 155,171 c 53,56 108,109 162,164 l 326,326 c 218,217 431,439 663,642 l 681,623 c 233,202 474,394 709,593 l 355,296 369,279 738,561 z M 9020,28196 C 7700,26218 6644,24066 5844,21827 5446,20707 5101,19569 4816,18415 l -202,-867 -179,-872 c -56,-291 -107,-584 -159,-876 -49,-293 -90,-587 -136,-880 -169,-1175 -275,-2359 -313,-3544 -19,-593 -17,-1187 12,-1779 15,-287 34,-575 67,-861 21,-28 41,-55 62,-83 -1,21 -2,42 -4,62 -17,295 -24,590 -23,885 3,589 23,1179 68,1767 80,1176 225,2347 418,3509 198,1161 432,2315 731,3454 294,1139 637,2266 1037,3371 193,556 413,1101 633,1646 l 352,809 c 119,269 251,531 374,798 511,1059 1079,2090 1710,3083 638,988 1332,1939 2087,2844 766,897 1594,1738 2469,2535 -929,-733 -1797,-1545 -2606,-2414 -794,-883 -1528,-1821 -2194,-2806 z M 2853,10814 c -51,3534 779,10641 2335,14605 1200,3055 3388,5158 5336,6489 -566,-253 -1115,-537 -1645,-850 C 2157,25851 2238,15683 2853,10814 Z m -848,396 C 1413,14799 1032,20673 3424,25781 1824,23270 896,20291 896,17101 c 0,-2077 394,-4064 1109,-5891 z m 10290,-9337 44,-28 -37,46 -2024,2466 -388,473 -1803,382 -1890,401 z m 9347,-328 c -730,863 -2938,3504 -3278,4278 -988,-912 -1623,-1373 -2825,-1404 -822,-20 -2296,194 -3722,402 -168,24 -348,50 -531,76 1130,-889 3242,-2950 4228,-3923 522,-51 1051,-78 1587,-78 1575,0 3099,228 4541,649 z m -4143,13935 c 400,-269 1205,-597 1843,-836 417,-92 864,-186 1318,-282 2586,-544 4030,-882 4543,-1261 61,347 -193,843 -193,843 -224,597 -5011,1443 -5795,1779 -583,250 -1263,-132 -1716,-243 z m 1567,1076 c 473,-647 1318,-746 2388,-970 1069,-224 3307,-659 3432,-367 31,74 71,189 96,325 -64,35 -143,82 -245,142 -462,271 -1236,725 -1978,916 -596,153 -2691,223 -3711,-25 6,-7 13,-14 18,-21 z m 1842,331 c 819,0 1592,-65 1888,-141 763,-196 1547,-656 2016,-932 65,-38 131,-76 190,-110 9,132 0,274 -45,413 -115,209 -308,569 -973,930 -548,310 -1567,507 -2706,508 h -6 c -257,0 -503,-11 -736,-30 -188,-23 -376,-46 -548,-65 -420,-68 -767,-169 -1004,-297 -109,-121 -160,-340 -7,-452 498,128 1230,176 1931,176 z m 4363,-6844 C 24246,8790 23247,8608 22346,8444 c -546,-98 -1036,-188 -1560,-498 562,-1233 1630,-4753 2178,-5951 1425,555 2753,1307 3950,2221 -466,1398 -1160,4459 -1643,5827 z M 17101,1 C 12533,1 8239,1780 5009,5009 1780,8239 1,12533 1,17101 c 0,4566 1779,8860 5008,12090 3230,3229 7524,5008 12092,5008 4566,0 8860,-1779 12090,-5008 3229,-3230 5008,-7524 5008,-12090 0,-4568 -1779,-8862 -5008,-12092 C 25961,1780 21667,1 17101,1 Z"
     id="path252"
     style="display:inline" /></g>
</svg>
